<?xml version="1.0" encoding="UTF-8" standalone="no"?>
<svg width="332.669mm" height="151.342mm"
 viewBox="0 0 942 429"
 xmlns="http://www.w3.org/2000/svg" xmlns:xlink="http://www.w3.org/1999/xlink"  version="1.2" baseProfile="tiny">
<title>Qt Svg Document</title>
<desc>Generated with Qt</desc>
<defs>
</defs>
<g fill="none" stroke="black" stroke-width="1" fill-rule="evenodd" stroke-linecap="square" stroke-linejoin="bevel" >

<g fill="none" stroke="#000000" stroke-opacity="1" stroke-width="1" stroke-linecap="square" stroke-linejoin="bevel" transform="matrix(1,0,0,1,0,0)"
font-family="Verdana" font-size="9" font-weight="400" font-style="normal" 
>
</g>

<g fill="none" stroke="#000000" stroke-opacity="1" stroke-width="1" stroke-linecap="square" stroke-linejoin="bevel" transform="matrix(1,0,0,1,0,0)"
font-family="Verdana" font-size="9" font-weight="400" font-style="normal" 
>
</g>

<g fill="none" stroke="#000000" stroke-opacity="1" stroke-width="1" stroke-linecap="square" stroke-linejoin="bevel" transform="matrix(0.99536,0,0,0.99536,1403.95,-78.6334)"
font-family="Verdana" font-size="9" font-weight="400" font-style="normal" 
>
</g>

<g fill="none" stroke="#ff0000" stroke-opacity="1" stroke-dasharray="4,2" stroke-dashoffset="0" stroke-width="1" stroke-linecap="square" stroke-linejoin="bevel" transform="matrix(0.99536,0,0,0.99536,1403.95,-78.6334)"
font-family="Verdana" font-size="9" font-weight="400" font-style="normal" 
>
<polyline fill="none" vector-effect="non-scaling-stroke" points="-513,105 -513,456 " />
</g>

<g fill="none" stroke="#000000" stroke-opacity="1" stroke-width="1" stroke-linecap="square" stroke-linejoin="bevel" transform="matrix(0.99536,0,0,0.99536,1403.95,-78.6334)"
font-family="Verdana" font-size="9" font-weight="400" font-style="normal" 
>
</g>

<g fill="none" stroke="#000000" stroke-opacity="1" stroke-width="1" stroke-linecap="square" stroke-linejoin="bevel" transform="matrix(0.99536,0,0,0.99536,692.459,0.99536)"
font-family="Verdana" font-size="9" font-weight="400" font-style="normal" 
>
</g>

<g fill="#ffffc0" fill-opacity="1" stroke="#ff0000" stroke-opacity="1" stroke-width="1" stroke-linecap="square" stroke-linejoin="bevel" transform="matrix(0.99536,0,0,0.99536,692.459,0.99536)"
font-family="Verdana" font-size="9" font-weight="400" font-style="normal" 
>
<path vector-effect="non-scaling-stroke" fill-rule="evenodd" d="M0,0 L87,0 L87,25 L0,25 L0,0"/>
</g>

<g fill="#ffffc0" fill-opacity="1" stroke="#000000" stroke-opacity="1" stroke-width="1" stroke-linecap="square" stroke-linejoin="bevel" transform="matrix(0.99536,0,0,0.99536,692.459,0.99536)"
font-family="Verdana" font-size="9" font-weight="400" font-style="normal" 
>
<text fill="#000000" fill-opacity="1" stroke="none" xml:space="preserve" x="14.5" y="16" font-family="Verdana" font-size="9" font-weight="400" font-style="normal" 
 > : Paramset</text>
</g>

<g fill="none" stroke="#000000" stroke-opacity="1" stroke-width="1" stroke-linecap="butt" stroke-linejoin="bevel" transform="matrix(0.99536,0,0,0.99536,692.459,0.99536)"
font-family="Verdana" font-size="9" font-weight="400" font-style="normal" 
>
<polyline fill="none" vector-effect="none" points="14.5,18 72.5,18 " />
</g>

<g fill="none" stroke="#000000" stroke-opacity="1" stroke-width="1" stroke-linecap="square" stroke-linejoin="bevel" transform="matrix(0.99536,0,0,0.99536,692.459,0.99536)"
font-family="Verdana" font-size="9" font-weight="400" font-style="normal" 
>
</g>

<g fill="none" stroke="#000000" stroke-opacity="1" stroke-width="1" stroke-linecap="square" stroke-linejoin="bevel" transform="matrix(0.99536,0,0,0.99536,1403.95,-78.6334)"
font-family="Verdana" font-size="9" font-weight="400" font-style="normal" 
>
</g>

<g fill="none" stroke="#ff0000" stroke-opacity="1" stroke-dasharray="4,2" stroke-dashoffset="0" stroke-width="1" stroke-linecap="square" stroke-linejoin="bevel" transform="matrix(0.99536,0,0,0.99536,1403.95,-78.6334)"
font-family="Verdana" font-size="9" font-weight="400" font-style="normal" 
>
<polyline fill="none" vector-effect="non-scaling-stroke" points="-671,105 -671,509 " />
</g>

<g fill="none" stroke="#000000" stroke-opacity="1" stroke-width="1" stroke-linecap="square" stroke-linejoin="bevel" transform="matrix(0.99536,0,0,0.99536,1403.95,-78.6334)"
font-family="Verdana" font-size="9" font-weight="400" font-style="normal" 
>
</g>

<g fill="none" stroke="#000000" stroke-opacity="1" stroke-width="1" stroke-linecap="square" stroke-linejoin="bevel" transform="matrix(0.99536,0,0,0.99536,353.822,0.99536)"
font-family="Verdana" font-size="9" font-weight="400" font-style="normal" 
>
</g>

<g fill="#ffffc0" fill-opacity="1" stroke="#ff0000" stroke-opacity="1" stroke-width="1" stroke-linecap="square" stroke-linejoin="bevel" transform="matrix(0.99536,0,0,0.99536,353.822,0.99536)"
font-family="Verdana" font-size="9" font-weight="400" font-style="normal" 
>
<path vector-effect="non-scaling-stroke" fill-rule="evenodd" d="M0,0 L56,0 L56,25 L0,25 L0,0"/>
</g>

<g fill="#ffffc0" fill-opacity="1" stroke="#000000" stroke-opacity="1" stroke-width="1" stroke-linecap="square" stroke-linejoin="bevel" transform="matrix(0.99536,0,0,0.99536,353.822,0.99536)"
font-family="Verdana" font-size="9" font-weight="400" font-style="normal" 
>
<text fill="#000000" fill-opacity="1" stroke="none" xml:space="preserve" x="11" y="16" font-family="Verdana" font-size="9" font-weight="400" font-style="normal" 
 > : Host</text>
</g>

<g fill="none" stroke="#000000" stroke-opacity="1" stroke-width="1" stroke-linecap="butt" stroke-linejoin="bevel" transform="matrix(0.99536,0,0,0.99536,353.822,0.99536)"
font-family="Verdana" font-size="9" font-weight="400" font-style="normal" 
>
<polyline fill="none" vector-effect="none" points="11,18 45,18 " />
</g>

<g fill="none" stroke="#000000" stroke-opacity="1" stroke-width="1" stroke-linecap="square" stroke-linejoin="bevel" transform="matrix(0.99536,0,0,0.99536,353.822,0.99536)"
font-family="Verdana" font-size="9" font-weight="400" font-style="normal" 
>
</g>

<g fill="none" stroke="#000000" stroke-opacity="1" stroke-width="1" stroke-linecap="square" stroke-linejoin="bevel" transform="matrix(0.99536,0,0,0.99536,1403.95,-78.6334)"
font-family="Verdana" font-size="9" font-weight="400" font-style="normal" 
>
</g>

<g fill="none" stroke="#ff0000" stroke-opacity="1" stroke-dasharray="4,2" stroke-dashoffset="0" stroke-width="1" stroke-linecap="square" stroke-linejoin="bevel" transform="matrix(0.99536,0,0,0.99536,1403.95,-78.6334)"
font-family="Verdana" font-size="9" font-weight="400" font-style="normal" 
>
<polyline fill="none" vector-effect="non-scaling-stroke" points="-1027,105 -1027,509 " />
</g>

<g fill="none" stroke="#000000" stroke-opacity="1" stroke-width="1" stroke-linecap="square" stroke-linejoin="bevel" transform="matrix(0.99536,0,0,0.99536,1403.95,-78.6334)"
font-family="Verdana" font-size="9" font-weight="400" font-style="normal" 
>
</g>

<g fill="none" stroke="#000000" stroke-opacity="1" stroke-width="1" stroke-linecap="square" stroke-linejoin="bevel" transform="matrix(0.99536,0,0,0.99536,0.99536,0.99536)"
font-family="Verdana" font-size="9" font-weight="400" font-style="normal" 
>
</g>

<g fill="#ffffc0" fill-opacity="1" stroke="#ff0000" stroke-opacity="1" stroke-width="1" stroke-linecap="square" stroke-linejoin="bevel" transform="matrix(0.99536,0,0,0.99536,0.99536,0.99536)"
font-family="Verdana" font-size="9" font-weight="400" font-style="normal" 
>
<path vector-effect="non-scaling-stroke" fill-rule="evenodd" d="M0,0 L64,0 L64,25 L0,25 L0,0"/>
</g>

<g fill="#ffffc0" fill-opacity="1" stroke="#000000" stroke-opacity="1" stroke-width="1" stroke-linecap="square" stroke-linejoin="bevel" transform="matrix(0.99536,0,0,0.99536,0.99536,0.99536)"
font-family="Verdana" font-size="9" font-weight="400" font-style="normal" 
>
<text fill="#000000" fill-opacity="1" stroke="none" xml:space="preserve" x="12" y="16" font-family="Verdana" font-size="9" font-weight="400" font-style="normal" 
 > : Model</text>
</g>

<g fill="none" stroke="#000000" stroke-opacity="1" stroke-width="1" stroke-linecap="butt" stroke-linejoin="bevel" transform="matrix(0.99536,0,0,0.99536,0.99536,0.99536)"
font-family="Verdana" font-size="9" font-weight="400" font-style="normal" 
>
<polyline fill="none" vector-effect="none" points="12,18 52,18 " />
</g>

<g fill="none" stroke="#000000" stroke-opacity="1" stroke-width="1" stroke-linecap="square" stroke-linejoin="bevel" transform="matrix(0.99536,0,0,0.99536,0.99536,0.99536)"
font-family="Verdana" font-size="9" font-weight="400" font-style="normal" 
>
</g>

<g fill="none" stroke="#000000" stroke-opacity="1" stroke-width="1" stroke-linecap="square" stroke-linejoin="bevel" transform="matrix(0.99536,0,0,0.99536,413.569,287.659)"
font-family="Verdana" font-size="9" font-weight="400" font-style="normal" 
>
</g>

<g fill="none" stroke="#000000" stroke-opacity="1" stroke-width="1" stroke-linecap="square" stroke-linejoin="bevel" transform="matrix(0.99536,0,0,0.99536,413.569,287.659)"
font-family="Verdana" font-size="9" font-weight="400" font-style="normal" 
>
<text fill="#000000" fill-opacity="1" stroke="none" xml:space="preserve" x="22" y="13" font-family="Verdana" font-size="9" font-weight="400" font-style="normal" 
 >uiCreate(ui : UIProvider)</text>
</g>

<g fill="none" stroke="#000000" stroke-opacity="1" stroke-width="1" stroke-linecap="square" stroke-linejoin="bevel" transform="matrix(0.99536,0,0,0.99536,413.569,287.659)"
font-family="Verdana" font-size="9" font-weight="400" font-style="normal" 
>
</g>

<g fill="none" stroke="#000000" stroke-opacity="1" stroke-width="1" stroke-linecap="square" stroke-linejoin="bevel" transform="matrix(0.99536,0,0,0.99536,1403.95,-78.6334)"
font-family="Verdana" font-size="9" font-weight="400" font-style="normal" 
>
</g>

<g fill="none" stroke="#ff0000" stroke-opacity="1" stroke-dasharray="4,2" stroke-dashoffset="0" stroke-width="1" stroke-linecap="square" stroke-linejoin="bevel" transform="matrix(0.99536,0,0,0.99536,1403.95,-78.6334)"
font-family="Verdana" font-size="9" font-weight="400" font-style="normal" 
>
<polyline fill="none" vector-effect="non-scaling-stroke" points="-1377,105 -1377,255 " />
</g>

<g fill="none" stroke="#000000" stroke-opacity="1" stroke-width="1" stroke-linecap="square" stroke-linejoin="bevel" transform="matrix(0.99536,0,0,0.99536,1403.95,-78.6334)"
font-family="Verdana" font-size="9" font-weight="400" font-style="normal" 
>
</g>

<g fill="none" stroke="#000000" stroke-opacity="1" stroke-width="1" stroke-linecap="square" stroke-linejoin="bevel" transform="matrix(0.99536,0,0,0.99536,413.569,165.23)"
font-family="Verdana" font-size="9" font-weight="400" font-style="normal" 
>
</g>

<g fill="none" stroke="#000000" stroke-opacity="1" stroke-width="1" stroke-linecap="square" stroke-linejoin="bevel" transform="matrix(0.99536,0,0,0.99536,413.569,165.23)"
font-family="Verdana" font-size="9" font-weight="400" font-style="normal" 
>
<text fill="#000000" fill-opacity="1" stroke="none" xml:space="preserve" x="39.5" y="13" font-family="Verdana" font-size="9" font-weight="400" font-style="normal" 
 >Paramset(params : Herbs::Array&lt;Paraminfo*&gt;)</text>
</g>

<g fill="none" stroke="#000000" stroke-opacity="1" stroke-width="1" stroke-linecap="square" stroke-linejoin="bevel" transform="matrix(0.99536,0,0,0.99536,413.569,165.23)"
font-family="Verdana" font-size="9" font-weight="400" font-style="normal" 
>
</g>

<g fill="none" stroke="#000000" stroke-opacity="1" stroke-width="1" stroke-linecap="square" stroke-linejoin="bevel" transform="matrix(0.99536,0,0,0.99536,59.2213,46.7819)"
font-family="Verdana" font-size="9" font-weight="400" font-style="normal" 
>
</g>

<g fill="none" stroke="#000000" stroke-opacity="1" stroke-width="1" stroke-linecap="square" stroke-linejoin="bevel" transform="matrix(0.99536,0,0,0.99536,59.2213,46.7819)"
font-family="Verdana" font-size="9" font-weight="400" font-style="normal" 
>
<text fill="#000000" fill-opacity="1" stroke="none" xml:space="preserve" x="10" y="13" font-family="Verdana" font-size="9" font-weight="400" font-style="normal" 
 >Model()</text>
</g>

<g fill="none" stroke="#000000" stroke-opacity="1" stroke-width="1" stroke-linecap="square" stroke-linejoin="bevel" transform="matrix(0.99536,0,0,0.99536,59.2213,46.7819)"
font-family="Verdana" font-size="9" font-weight="400" font-style="normal" 
>
</g>

<g fill="none" stroke="#000000" stroke-opacity="1" stroke-width="1" stroke-linecap="square" stroke-linejoin="bevel" transform="matrix(0.99536,0,0,0.99536,846.846,0.99536)"
font-family="Verdana" font-size="9" font-weight="400" font-style="normal" 
>
</g>

<g fill="#ffffc0" fill-opacity="1" stroke="#ff0000" stroke-opacity="1" stroke-width="1" stroke-linecap="square" stroke-linejoin="bevel" transform="matrix(0.99536,0,0,0.99536,846.846,0.99536)"
font-family="Verdana" font-size="9" font-weight="400" font-style="normal" 
>
<path vector-effect="non-scaling-stroke" fill-rule="evenodd" d="M0,0 L93,0 L93,25 L0,25 L0,0"/>
</g>

<g fill="#ffffc0" fill-opacity="1" stroke="#000000" stroke-opacity="1" stroke-width="1" stroke-linecap="square" stroke-linejoin="bevel" transform="matrix(0.99536,0,0,0.99536,846.846,0.99536)"
font-family="Verdana" font-size="9" font-weight="400" font-style="normal" 
>
<text fill="#000000" fill-opacity="1" stroke="none" xml:space="preserve" x="14" y="16" font-family="Verdana" font-size="9" font-weight="400" font-style="normal" 
 > : UIProvider</text>
</g>

<g fill="none" stroke="#000000" stroke-opacity="1" stroke-width="1" stroke-linecap="butt" stroke-linejoin="bevel" transform="matrix(0.99536,0,0,0.99536,846.846,0.99536)"
font-family="Verdana" font-size="9" font-weight="400" font-style="normal" 
>
<polyline fill="none" vector-effect="none" points="14,18 79,18 " />
</g>

<g fill="none" stroke="#000000" stroke-opacity="1" stroke-width="1" stroke-linecap="square" stroke-linejoin="bevel" transform="matrix(0.99536,0,0,0.99536,846.846,0.99536)"
font-family="Verdana" font-size="9" font-weight="400" font-style="normal" 
>
</g>

<g fill="none" stroke="#000000" stroke-opacity="1" stroke-width="1" stroke-linecap="square" stroke-linejoin="bevel" transform="matrix(0.99536,0,0,0.99536,25.3791,65.9426)"
font-family="Verdana" font-size="9" font-weight="400" font-style="normal" 
>
</g>

<g fill="#ffffff" fill-opacity="1" stroke="none" transform="matrix(0.99536,0,0,0.99536,25.3791,65.9426)"
font-family="Verdana" font-size="9" font-weight="400" font-style="normal" 
>
<path vector-effect="non-scaling-stroke" fill-rule="evenodd" d="M0,0 L17,0 L17,20 L0,20 L0,0"/>
</g>

<g fill="none" stroke="#ff0000" stroke-opacity="1" stroke-width="1" stroke-linecap="square" stroke-linejoin="bevel" transform="matrix(0.99536,0,0,0.99536,25.3791,65.9426)"
font-family="Verdana" font-size="9" font-weight="400" font-style="normal" 
>
<path vector-effect="non-scaling-stroke" fill-rule="evenodd" d="M0,0 L17,0 L17,20 L0,20 L0,0"/>
<polyline fill="none" vector-effect="non-scaling-stroke" points="18,4 357,4 " />
</g>

<g fill="#ff0000" fill-opacity="1" stroke="#ff0000" stroke-opacity="1" stroke-width="1" stroke-linecap="square" stroke-linejoin="bevel" transform="matrix(0.99536,0,0,0.99536,25.3791,65.9426)"
font-family="Verdana" font-size="9" font-weight="400" font-style="normal" 
>
<path vector-effect="non-scaling-stroke" fill-rule="evenodd" d="M17,4 L21,1 L21,7 L17,4"/>
<polyline fill="none" vector-effect="non-scaling-stroke" points="357,17 353,14 " />
<polyline fill="none" vector-effect="non-scaling-stroke" points="357,17 353,20 " />
</g>

<g fill="#ff0000" fill-opacity="1" stroke="#ff0000" stroke-opacity="1" stroke-dasharray="1,2" stroke-dashoffset="0" stroke-width="1" stroke-linecap="square" stroke-linejoin="bevel" transform="matrix(0.99536,0,0,0.99536,25.3791,65.9426)"
font-family="Verdana" font-size="9" font-weight="400" font-style="normal" 
>
<polyline fill="none" vector-effect="non-scaling-stroke" points="18,17 357,17 " />
</g>

<g fill="none" stroke="#000000" stroke-opacity="1" stroke-width="1" stroke-linecap="square" stroke-linejoin="bevel" transform="matrix(0.99536,0,0,0.99536,25.3791,65.9426)"
font-family="Verdana" font-size="9" font-weight="400" font-style="normal" 
>
</g>

<g fill="none" stroke="#000000" stroke-opacity="1" stroke-width="1" stroke-linecap="square" stroke-linejoin="bevel" transform="matrix(0.99536,0,0,0.99536,25.3791,135.897)"
font-family="Verdana" font-size="9" font-weight="400" font-style="normal" 
>
</g>

<g fill="#ffffff" fill-opacity="1" stroke="none" transform="matrix(0.99536,0,0,0.99536,25.3791,135.897)"
font-family="Verdana" font-size="9" font-weight="400" font-style="normal" 
>
<path vector-effect="non-scaling-stroke" fill-rule="evenodd" d="M0,0 L17,0 L17,20 L0,20 L0,0"/>
</g>

<g fill="none" stroke="#ff0000" stroke-opacity="1" stroke-width="1" stroke-linecap="square" stroke-linejoin="bevel" transform="matrix(0.99536,0,0,0.99536,25.3791,135.897)"
font-family="Verdana" font-size="9" font-weight="400" font-style="normal" 
>
<path vector-effect="non-scaling-stroke" fill-rule="evenodd" d="M0,0 L17,0 L17,20 L0,20 L0,0"/>
<polyline fill="none" vector-effect="non-scaling-stroke" points="18,4 357,4 " />
</g>

<g fill="#ff0000" fill-opacity="1" stroke="#ff0000" stroke-opacity="1" stroke-width="1" stroke-linecap="square" stroke-linejoin="bevel" transform="matrix(0.99536,0,0,0.99536,25.3791,135.897)"
font-family="Verdana" font-size="9" font-weight="400" font-style="normal" 
>
<path vector-effect="non-scaling-stroke" fill-rule="evenodd" d="M17,4 L21,1 L21,7 L17,4"/>
<polyline fill="none" vector-effect="non-scaling-stroke" points="357,17 353,14 " />
<polyline fill="none" vector-effect="non-scaling-stroke" points="357,17 353,20 " />
</g>

<g fill="#ff0000" fill-opacity="1" stroke="#ff0000" stroke-opacity="1" stroke-dasharray="1,2" stroke-dashoffset="0" stroke-width="1" stroke-linecap="square" stroke-linejoin="bevel" transform="matrix(0.99536,0,0,0.99536,25.3791,135.897)"
font-family="Verdana" font-size="9" font-weight="400" font-style="normal" 
>
<polyline fill="none" vector-effect="non-scaling-stroke" points="18,17 357,17 " />
</g>

<g fill="none" stroke="#000000" stroke-opacity="1" stroke-width="1" stroke-linecap="square" stroke-linejoin="bevel" transform="matrix(0.99536,0,0,0.99536,25.3791,135.897)"
font-family="Verdana" font-size="9" font-weight="400" font-style="normal" 
>
</g>

<g fill="none" stroke="#000000" stroke-opacity="1" stroke-width="1" stroke-linecap="square" stroke-linejoin="bevel" transform="matrix(0.99536,0,0,0.99536,381.718,236.66)"
font-family="Verdana" font-size="9" font-weight="400" font-style="normal" 
>
</g>

<g fill="#ffffff" fill-opacity="1" stroke="none" transform="matrix(0.99536,0,0,0.99536,381.718,236.66)"
font-family="Verdana" font-size="9" font-weight="400" font-style="normal" 
>
<path vector-effect="non-scaling-stroke" fill-rule="evenodd" d="M505,0 L522,0 L522,20 L505,20 L505,0"/>
</g>

<g fill="none" stroke="#ff0000" stroke-opacity="1" stroke-width="1" stroke-linecap="square" stroke-linejoin="bevel" transform="matrix(0.99536,0,0,0.99536,381.718,236.66)"
font-family="Verdana" font-size="9" font-weight="400" font-style="normal" 
>
<path vector-effect="non-scaling-stroke" fill-rule="evenodd" d="M505,0 L522,0 L522,20 L505,20 L505,0"/>
<polyline fill="none" vector-effect="non-scaling-stroke" points="0,4 505,4 " />
</g>

<g fill="#ff0000" fill-opacity="1" stroke="#ff0000" stroke-opacity="1" stroke-width="1" stroke-linecap="square" stroke-linejoin="bevel" transform="matrix(0.99536,0,0,0.99536,381.718,236.66)"
font-family="Verdana" font-size="9" font-weight="400" font-style="normal" 
>
<path vector-effect="non-scaling-stroke" fill-rule="evenodd" d="M504,4 L500,1 L500,7 L504,4"/>
<polyline fill="none" vector-effect="non-scaling-stroke" points="0,17 4,14 " />
<polyline fill="none" vector-effect="non-scaling-stroke" points="0,17 4,20 " />
</g>

<g fill="#ff0000" fill-opacity="1" stroke="#ff0000" stroke-opacity="1" stroke-dasharray="1,2" stroke-dashoffset="0" stroke-width="1" stroke-linecap="square" stroke-linejoin="bevel" transform="matrix(0.99536,0,0,0.99536,381.718,236.66)"
font-family="Verdana" font-size="9" font-weight="400" font-style="normal" 
>
<polyline fill="none" vector-effect="non-scaling-stroke" points="0,17 505,17 " />
</g>

<g fill="none" stroke="#000000" stroke-opacity="1" stroke-width="1" stroke-linecap="square" stroke-linejoin="bevel" transform="matrix(0.99536,0,0,0.99536,381.718,236.66)"
font-family="Verdana" font-size="9" font-weight="400" font-style="normal" 
>
</g>

<g fill="none" stroke="#000000" stroke-opacity="1" stroke-width="1" stroke-linecap="square" stroke-linejoin="bevel" transform="matrix(0.99536,0,0,0.99536,741.043,316.524)"
font-family="Verdana" font-size="9" font-weight="400" font-style="normal" 
>
</g>

<g fill="none" stroke="#000000" stroke-opacity="1" stroke-width="1" stroke-linecap="square" stroke-linejoin="bevel" transform="matrix(0.99536,0,0,0.99536,741.043,316.524)"
font-family="Verdana" font-size="9" font-weight="400" font-style="normal" 
>
<text fill="#000000" fill-opacity="1" stroke="none" xml:space="preserve" x="24" y="13" font-family="Verdana" font-size="9" font-weight="400" font-style="normal" 
 >create(info : Paramobj)</text>
</g>

<g fill="none" stroke="#000000" stroke-opacity="1" stroke-width="1" stroke-linecap="square" stroke-linejoin="bevel" transform="matrix(0.99536,0,0,0.99536,741.043,316.524)"
font-family="Verdana" font-size="9" font-weight="400" font-style="normal" 
>
</g>

<g fill="none" stroke="#000000" stroke-opacity="1" stroke-width="1" stroke-linecap="square" stroke-linejoin="bevel" transform="matrix(0.99536,0,0,0.99536,381.718,306.82)"
font-family="Verdana" font-size="9" font-weight="400" font-style="normal" 
>
</g>

<g fill="#ffffff" fill-opacity="1" stroke="none" transform="matrix(0.99536,0,0,0.99536,381.718,306.82)"
font-family="Verdana" font-size="9" font-weight="400" font-style="normal" 
>
<path vector-effect="non-scaling-stroke" fill-rule="evenodd" d="M347,0 L364,0 L364,102 L347,102 L347,0"/>
</g>

<g fill="none" stroke="#ff0000" stroke-opacity="1" stroke-width="1" stroke-linecap="square" stroke-linejoin="bevel" transform="matrix(0.99536,0,0,0.99536,381.718,306.82)"
font-family="Verdana" font-size="9" font-weight="400" font-style="normal" 
>
<path vector-effect="non-scaling-stroke" fill-rule="evenodd" d="M347,0 L364,0 L364,102 L347,102 L347,0"/>
<polyline fill="none" vector-effect="non-scaling-stroke" points="0,4 347,4 " />
</g>

<g fill="#ff0000" fill-opacity="1" stroke="#ff0000" stroke-opacity="1" stroke-width="1" stroke-linecap="square" stroke-linejoin="bevel" transform="matrix(0.99536,0,0,0.99536,381.718,306.82)"
font-family="Verdana" font-size="9" font-weight="400" font-style="normal" 
>
<path vector-effect="non-scaling-stroke" fill-rule="evenodd" d="M346,4 L342,1 L342,7 L346,4"/>
<polyline fill="none" vector-effect="non-scaling-stroke" points="0,99 4,96 " />
<polyline fill="none" vector-effect="non-scaling-stroke" points="0,99 4,102 " />
</g>

<g fill="#ff0000" fill-opacity="1" stroke="#ff0000" stroke-opacity="1" stroke-dasharray="1,2" stroke-dashoffset="0" stroke-width="1" stroke-linecap="square" stroke-linejoin="bevel" transform="matrix(0.99536,0,0,0.99536,381.718,306.82)"
font-family="Verdana" font-size="9" font-weight="400" font-style="normal" 
>
<polyline fill="none" vector-effect="non-scaling-stroke" points="0,99 347,99 " />
</g>

<g fill="none" stroke="#000000" stroke-opacity="1" stroke-width="1" stroke-linecap="square" stroke-linejoin="bevel" transform="matrix(0.99536,0,0,0.99536,381.718,306.82)"
font-family="Verdana" font-size="9" font-weight="400" font-style="normal" 
>
</g>

<g fill="none" stroke="#000000" stroke-opacity="1" stroke-width="1" stroke-linecap="square" stroke-linejoin="bevel" transform="matrix(0.99536,0,0,0.99536,736.066,335.708)"
font-family="Verdana" font-size="9" font-weight="400" font-style="normal" 
>
</g>

<g fill="#ffffff" fill-opacity="1" stroke="none" transform="matrix(0.99536,0,0,0.99536,736.066,335.708)"
font-family="Verdana" font-size="9" font-weight="400" font-style="normal" 
>
<path vector-effect="non-scaling-stroke" fill-rule="evenodd" d="M149,0 L166,0 L166,20 L149,20 L149,0"/>
</g>

<g fill="none" stroke="#ff0000" stroke-opacity="1" stroke-width="1" stroke-linecap="square" stroke-linejoin="bevel" transform="matrix(0.99536,0,0,0.99536,736.066,335.708)"
font-family="Verdana" font-size="9" font-weight="400" font-style="normal" 
>
<path vector-effect="non-scaling-stroke" fill-rule="evenodd" d="M149,0 L166,0 L166,20 L149,20 L149,0"/>
<polyline fill="none" vector-effect="non-scaling-stroke" points="8,4 149,4 " />
</g>

<g fill="#ff0000" fill-opacity="1" stroke="#ff0000" stroke-opacity="1" stroke-width="1" stroke-linecap="square" stroke-linejoin="bevel" transform="matrix(0.99536,0,0,0.99536,736.066,335.708)"
font-family="Verdana" font-size="9" font-weight="400" font-style="normal" 
>
<path vector-effect="non-scaling-stroke" fill-rule="evenodd" d="M148,4 L144,1 L144,7 L148,4"/>
<polyline fill="none" vector-effect="non-scaling-stroke" points="8,17 12,14 " />
<polyline fill="none" vector-effect="non-scaling-stroke" points="8,17 12,20 " />
</g>

<g fill="#ff0000" fill-opacity="1" stroke="#ff0000" stroke-opacity="1" stroke-dasharray="1,2" stroke-dashoffset="0" stroke-width="1" stroke-linecap="square" stroke-linejoin="bevel" transform="matrix(0.99536,0,0,0.99536,736.066,335.708)"
font-family="Verdana" font-size="9" font-weight="400" font-style="normal" 
>
<polyline fill="none" vector-effect="non-scaling-stroke" points="8,17 149,17 " />
</g>

<g fill="none" stroke="#000000" stroke-opacity="1" stroke-width="1" stroke-linecap="square" stroke-linejoin="bevel" transform="matrix(0.99536,0,0,0.99536,736.066,335.708)"
font-family="Verdana" font-size="9" font-weight="400" font-style="normal" 
>
</g>

<g fill="none" stroke="#000000" stroke-opacity="1" stroke-width="1" stroke-linecap="square" stroke-linejoin="bevel" transform="matrix(0.99536,0,0,0.99536,54.2445,116.457)"
font-family="Verdana" font-size="9" font-weight="400" font-style="normal" 
>
</g>

<g fill="none" stroke="#000000" stroke-opacity="1" stroke-width="1" stroke-linecap="square" stroke-linejoin="bevel" transform="matrix(0.99536,0,0,0.99536,54.2445,116.457)"
font-family="Verdana" font-size="9" font-weight="400" font-style="normal" 
>
<text fill="#000000" fill-opacity="1" stroke="none" xml:space="preserve" x="35.5" y="13" font-family="Verdana" font-size="9" font-weight="400" font-style="normal" 
 >paramsGet() : Herbs::Array&lt;Paraminfo*&gt;</text>
</g>

<g fill="none" stroke="#000000" stroke-opacity="1" stroke-width="1" stroke-linecap="square" stroke-linejoin="bevel" transform="matrix(0.99536,0,0,0.99536,54.2445,116.457)"
font-family="Verdana" font-size="9" font-weight="400" font-style="normal" 
>
</g>

<g fill="none" stroke="#000000" stroke-opacity="1" stroke-width="1" stroke-linecap="square" stroke-linejoin="bevel" transform="matrix(0.99536,0,0,0.99536,559.887,216.988)"
font-family="Verdana" font-size="9" font-weight="400" font-style="normal" 
>
</g>

<g fill="none" stroke="#000000" stroke-opacity="1" stroke-width="1" stroke-linecap="square" stroke-linejoin="bevel" transform="matrix(0.99536,0,0,0.99536,559.887,216.988)"
font-family="Verdana" font-size="9" font-weight="400" font-style="normal" 
>
<text fill="#000000" fill-opacity="1" stroke="none" xml:space="preserve" x="12" y="13" font-family="Verdana" font-size="9" font-weight="400" font-style="normal" 
 >UIProvider()</text>
</g>

<g fill="none" stroke="#000000" stroke-opacity="1" stroke-width="1" stroke-linecap="square" stroke-linejoin="bevel" transform="matrix(0.99536,0,0,0.99536,559.887,216.988)"
font-family="Verdana" font-size="9" font-weight="400" font-style="normal" 
>
</g>

<g fill="none" stroke="#000000" stroke-opacity="1" stroke-width="1" stroke-linecap="square" stroke-linejoin="bevel" transform="matrix(0.99536,0,0,0.99536,381.718,184.415)"
font-family="Verdana" font-size="9" font-weight="400" font-style="normal" 
>
</g>

<g fill="#ffffff" fill-opacity="1" stroke="none" transform="matrix(0.99536,0,0,0.99536,381.718,184.415)"
font-family="Verdana" font-size="9" font-weight="400" font-style="normal" 
>
<path vector-effect="non-scaling-stroke" fill-rule="evenodd" d="M347,0 L364,0 L364,20 L347,20 L347,0"/>
</g>

<g fill="none" stroke="#ff0000" stroke-opacity="1" stroke-width="1" stroke-linecap="square" stroke-linejoin="bevel" transform="matrix(0.99536,0,0,0.99536,381.718,184.415)"
font-family="Verdana" font-size="9" font-weight="400" font-style="normal" 
>
<path vector-effect="non-scaling-stroke" fill-rule="evenodd" d="M347,0 L364,0 L364,20 L347,20 L347,0"/>
<polyline fill="none" vector-effect="non-scaling-stroke" points="0,4 347,4 " />
</g>

<g fill="#ff0000" fill-opacity="1" stroke="#ff0000" stroke-opacity="1" stroke-width="1" stroke-linecap="square" stroke-linejoin="bevel" transform="matrix(0.99536,0,0,0.99536,381.718,184.415)"
font-family="Verdana" font-size="9" font-weight="400" font-style="normal" 
>
<path vector-effect="non-scaling-stroke" fill-rule="evenodd" d="M346,4 L342,1 L342,7 L346,4"/>
<polyline fill="none" vector-effect="non-scaling-stroke" points="0,17 4,14 " />
<polyline fill="none" vector-effect="non-scaling-stroke" points="0,17 4,20 " />
</g>

<g fill="#ff0000" fill-opacity="1" stroke="#ff0000" stroke-opacity="1" stroke-dasharray="1,2" stroke-dashoffset="0" stroke-width="1" stroke-linecap="square" stroke-linejoin="bevel" transform="matrix(0.99536,0,0,0.99536,381.718,184.415)"
font-family="Verdana" font-size="9" font-weight="400" font-style="normal" 
>
<polyline fill="none" vector-effect="non-scaling-stroke" points="0,17 347,17 " />
</g>

<g fill="none" stroke="#000000" stroke-opacity="1" stroke-width="1" stroke-linecap="square" stroke-linejoin="bevel" transform="matrix(0.99536,0,0,0.99536,381.718,184.415)"
font-family="Verdana" font-size="9" font-weight="400" font-style="normal" 
>
</g>

<g fill="none" stroke="#000000" stroke-opacity="1" stroke-width="1" stroke-linecap="square" stroke-linejoin="bevel" transform="matrix(1,0,0,1,0,0)"
font-family="Verdana" font-size="9" font-weight="400" font-style="normal" 
>
</g>
</g>
</svg>
